# xmcd CD Database Entry
#
# Track frame offsets:
# 150
# 22424
# 38976
# 65398
# 101622
# 122539
# 143926
# 159798
#
# Disc length: 2559 seconds
#
# Revision: 1
# Processed by: cddbd v1.4PL0 Copyright (c) Steve Scherf et al.
# Submitted via: tcd 2.0b
#
DISCID=6809fd08
DTITLE=Led Zeppelin - Led Zeppelin IV
DYEAR=1900
DGENRE=
TTITLE0=Black Dog
TTITLE1=Rock and Roll
TTITLE2=The Battle of Evermore
TTITLE3=Stairway To Heaven
TTITLE4=Misty Mountain Hop
TTITLE5=Four Sticks
TTITLE6=Going To California
TTITLE7=When The Levee Breaks
EXTD=
EXTT0=
EXTT1=
EXTT2=
EXTT3=
EXTT4=
EXTT5=
EXTT6=
EXTT7=
PLAYORDER=
